<?xml version="1.0" encoding="UTF-8" standalone="no"?><!-- Generator: Gravit.io --><svg xmlns="http://www.w3.org/2000/svg" xmlns:xlink="http://www.w3.org/1999/xlink" style="isolation:isolate" viewBox="0 0 200 200" width="200pt" height="200pt"><path d=" M 200 96.317 C 200 148.422 155.23 190.666 99.997 190.666 C 91.653 190.666 83.549 189.704 75.8 187.883 C 62.503 191.221 49.205 194.558 35.913 197.901 C 32.593 198.736 29.658 195.591 30.72 192.341 C 33.118 184.989 35.511 177.631 37.903 170.279 C 14.809 152.991 0 126.285 0 96.317 C 0 44.206 44.77 1.963 99.997 1.963 C 155.23 1.963 200 44.206 200 96.317 Z " fill="rgb(29,78,216)"/><mask id="_mask_4G49uGLpYa62AMwAhMx8mvRwA5ioc44T"><path d=" M 153.36 99.99 C 153.36 106.015 148.671 110.948 142.749 111.33 C 142.497 111.349 142.244 111.359 141.992 111.359 C 135.715 111.359 130.633 106.268 130.633 99.99 C 130.633 93.723 135.715 88.632 141.992 88.632 C 142.244 88.632 142.497 88.641 142.749 88.66 C 148.671 89.043 153.36 93.975 153.36 99.99 Z " fill="white" stroke="none"/></mask><path d=" M 153.36 99.99 C 153.36 106.015 148.671 110.948 142.749 111.33 C 142.497 111.349 142.244 111.359 141.992 111.359 C 135.715 111.359 130.633 106.268 130.633 99.99 C 130.633 93.723 135.715 88.632 141.992 88.632 C 142.244 88.632 142.497 88.641 142.749 88.66 C 148.671 89.043 153.36 93.975 153.36 99.99 Z " fill="rgb(219,234,254)"/><path d=" M 153.36 99.99 C 153.36 106.015 148.671 110.948 142.749 111.33 C 142.497 111.349 142.244 111.359 141.992 111.359 C 135.715 111.359 130.633 106.268 130.633 99.99 C 130.633 93.723 135.715 88.632 141.992 88.632 C 142.244 88.632 142.497 88.641 142.749 88.66 C 148.671 89.043 153.36 93.975 153.36 99.99 Z " fill="rgb(219,234,254)" mask="url(#_mask_4G49uGLpYa62AMwAhMx8mvRwA5ioc44T)" vector-effect="non-scaling-stroke" stroke-width="4" stroke="rgb(30,64,175)" stroke-linejoin="miter" stroke-linecap="square" stroke-miterlimit="3"/><mask id="_mask_ZSZtlNY0SaVRkIIIQaYu9OJnvLUdhr9E"><path d=" M 111.363 100.009 C 111.363 106.053 106.637 110.994 100.677 111.34 C 100.453 111.359 100.219 111.368 99.995 111.368 C 93.718 111.368 88.637 106.277 88.637 100.009 C 88.637 93.732 93.718 88.641 99.995 88.641 C 100.248 88.641 100.5 88.651 100.752 88.67 C 106.674 89.052 111.363 93.985 111.363 100.009 Z " fill="white" stroke="none"/></mask><path d=" M 111.363 100.009 C 111.363 106.053 106.637 110.994 100.677 111.34 C 100.453 111.359 100.219 111.368 99.995 111.368 C 93.718 111.368 88.637 106.277 88.637 100.009 C 88.637 93.732 93.718 88.641 99.995 88.641 C 100.248 88.641 100.5 88.651 100.752 88.67 C 106.674 89.052 111.363 93.985 111.363 100.009 Z " fill="rgb(219,234,254)"/><path d=" M 111.363 100.009 C 111.363 106.053 106.637 110.994 100.677 111.34 C 100.453 111.359 100.219 111.368 99.995 111.368 C 93.718 111.368 88.637 106.277 88.637 100.009 C 88.637 93.732 93.718 88.641 99.995 88.641 C 100.248 88.641 100.5 88.651 100.752 88.67 C 106.674 89.052 111.363 93.985 111.363 100.009 Z " fill="rgb(219,234,254)" mask="url(#_mask_ZSZtlNY0SaVRkIIIQaYu9OJnvLUdhr9E)" vector-effect="non-scaling-stroke" stroke-width="4" stroke="rgb(30,64,175)" stroke-linejoin="miter" stroke-linecap="square" stroke-miterlimit="3"/><mask id="_mask_1iSJb6jkFvKZcdezVNcbXvlnz0aMCn7o"><path d=" M 69.366 100.009 C 69.366 106.062 64.64 110.994 58.68 111.34 C 58.456 111.359 58.232 111.368 58.007 111.368 C 51.73 111.368 46.64 106.286 46.64 100.009 C 46.64 93.732 51.73 88.641 58.007 88.641 C 58.278 88.641 58.558 88.651 58.82 88.679 C 64.714 89.09 69.366 94.003 69.366 100.009 Z " fill="white" stroke="none"/></mask><path d=" M 69.366 100.009 C 69.366 106.062 64.64 110.994 58.68 111.34 C 58.456 111.359 58.232 111.368 58.007 111.368 C 51.73 111.368 46.64 106.286 46.64 100.009 C 46.64 93.732 51.73 88.641 58.007 88.641 C 58.278 88.641 58.558 88.651 58.82 88.679 C 64.714 89.09 69.366 94.003 69.366 100.009 Z " fill="rgb(219,234,254)"/><path d=" M 69.366 100.009 C 69.366 106.062 64.64 110.994 58.68 111.34 C 58.456 111.359 58.232 111.368 58.007 111.368 C 51.73 111.368 46.64 106.286 46.64 100.009 C 46.64 93.732 51.73 88.641 58.007 88.641 C 58.278 88.641 58.558 88.651 58.82 88.679 C 64.714 89.09 69.366 94.003 69.366 100.009 Z " fill="rgb(219,234,254)" mask="url(#_mask_1iSJb6jkFvKZcdezVNcbXvlnz0aMCn7o)" vector-effect="non-scaling-stroke" stroke-width="4" stroke="rgb(30,64,175)" stroke-linejoin="miter" stroke-linecap="square" stroke-miterlimit="3"/></svg>